<mxfile host="Electron" agent="Mozilla/5.0 (Windows NT 10.0; Win64; x64) AppleWebKit/537.36 (KHTML, like Gecko) draw.io/24.7.17 Chrome/128.0.6613.36 Electron/32.0.1 Safari/537.36" version="24.7.17" pages="3">
  <diagram name="Arquitectura Sistema Pelusa" id="QiZpSmox48JfUKZHiqBs">
    <mxGraphModel dx="4395" dy="5350" grid="1" gridSize="10" guides="1" tooltips="1" connect="1" arrows="1" fold="1" page="1" pageScale="1" pageWidth="850" pageHeight="1100" math="0" shadow="0">
      <root>
        <mxCell id="aIsUO63s0qGLavfYm9hK-0" />
        <mxCell id="aIsUO63s0qGLavfYm9hK-1" parent="aIsUO63s0qGLavfYm9hK-0" />
        <mxCell id="aIsUO63s0qGLavfYm9hK-65" value="&lt;font style=&quot;font-size: 61px;&quot;&gt;ARQUITECTURA SISTEMA - TRADER PELUSA&lt;/font&gt;" style="swimlane;whiteSpace=wrap;html=1;strokeWidth=11;startSize=190;fillColor=#fff2cc;strokeColor=default;" parent="aIsUO63s0qGLavfYm9hK-1" vertex="1">
          <mxGeometry x="-60" y="-2720" width="3570" height="3070" as="geometry" />
        </mxCell>
        <mxCell id="aIsUO63s0qGLavfYm9hK-15" value="&lt;font style=&quot;font-size: 28px;&quot;&gt;TradingView&lt;/font&gt;" style="swimlane;whiteSpace=wrap;html=1;startSize=50;fillColor=#bac8d3;strokeColor=#23445d;" parent="aIsUO63s0qGLavfYm9hK-65" vertex="1">
          <mxGeometry x="260" y="320" width="1050" height="440" as="geometry" />
        </mxCell>
        <mxCell id="aIsUO63s0qGLavfYm9hK-18" value="Trading" style="swimlane;whiteSpace=wrap;html=1;fontSize=21;startSize=40;fillColor=#bac8d3;strokeColor=#23445d;" parent="aIsUO63s0qGLavfYm9hK-15" vertex="1">
          <mxGeometry x="40" y="110" width="240" height="160" as="geometry" />
        </mxCell>
        <mxCell id="aIsUO63s0qGLavfYm9hK-20" value="Pinescrept" style="rounded=0;whiteSpace=wrap;html=1;fontSize=20;" parent="aIsUO63s0qGLavfYm9hK-18" vertex="1">
          <mxGeometry x="34.97" y="60" width="170.06" height="60" as="geometry" />
        </mxCell>
        <mxCell id="aIsUO63s0qGLavfYm9hK-16" value="WebHook" style="swimlane;whiteSpace=wrap;html=1;fontSize=21;startSize=40;fillColor=#bac8d3;strokeColor=#23445d;" parent="aIsUO63s0qGLavfYm9hK-15" vertex="1">
          <mxGeometry x="730" y="90" width="280" height="200" as="geometry" />
        </mxCell>
        <mxCell id="aIsUO63s0qGLavfYm9hK-17" value="Puerto 80, solo de envio de informacion desde TradingView" style="rounded=0;whiteSpace=wrap;html=1;" parent="aIsUO63s0qGLavfYm9hK-16" vertex="1">
          <mxGeometry x="30" y="60" width="210" height="110" as="geometry" />
        </mxCell>
        <mxCell id="YTfYLhVvecyiPPeJRuu2-0" value="Alertas" style="swimlane;whiteSpace=wrap;html=1;fontSize=21;startSize=40;fillColor=#bac8d3;strokeColor=#23445d;" parent="aIsUO63s0qGLavfYm9hK-15" vertex="1">
          <mxGeometry x="350" y="90" width="280" height="310" as="geometry" />
        </mxCell>
        <mxCell id="YTfYLhVvecyiPPeJRuu2-8" style="edgeStyle=orthogonalEdgeStyle;rounded=0;orthogonalLoop=1;jettySize=auto;html=1;exitX=1;exitY=0.75;exitDx=0;exitDy=0;entryX=1;entryY=0.25;entryDx=0;entryDy=0;" parent="YTfYLhVvecyiPPeJRuu2-0" source="YTfYLhVvecyiPPeJRuu2-3" target="YTfYLhVvecyiPPeJRuu2-5" edge="1">
          <mxGeometry relative="1" as="geometry" />
        </mxCell>
        <mxCell id="YTfYLhVvecyiPPeJRuu2-3" value="Configurar Alerta" style="rounded=0;whiteSpace=wrap;html=1;fontSize=20;" parent="YTfYLhVvecyiPPeJRuu2-0" vertex="1">
          <mxGeometry x="50" y="150" width="170.06" height="60" as="geometry" />
        </mxCell>
        <mxCell id="YTfYLhVvecyiPPeJRuu2-7" style="edgeStyle=orthogonalEdgeStyle;rounded=0;orthogonalLoop=1;jettySize=auto;html=1;exitX=1;exitY=0.5;exitDx=0;exitDy=0;entryX=1;entryY=0.25;entryDx=0;entryDy=0;" parent="YTfYLhVvecyiPPeJRuu2-0" source="YTfYLhVvecyiPPeJRuu2-4" target="YTfYLhVvecyiPPeJRuu2-3" edge="1">
          <mxGeometry relative="1" as="geometry" />
        </mxCell>
        <mxCell id="YTfYLhVvecyiPPeJRuu2-4" value="Agregar Alerta" style="rounded=0;whiteSpace=wrap;html=1;fontSize=20;" parent="YTfYLhVvecyiPPeJRuu2-0" vertex="1">
          <mxGeometry x="50" y="60" width="170.06" height="60" as="geometry" />
        </mxCell>
        <mxCell id="YTfYLhVvecyiPPeJRuu2-5" value="Crear Alerta" style="rounded=0;whiteSpace=wrap;html=1;fontSize=20;" parent="YTfYLhVvecyiPPeJRuu2-0" vertex="1">
          <mxGeometry x="50" y="230" width="170.06" height="60" as="geometry" />
        </mxCell>
        <mxCell id="YTfYLhVvecyiPPeJRuu2-6" style="edgeStyle=orthogonalEdgeStyle;rounded=0;orthogonalLoop=1;jettySize=auto;html=1;exitX=1;exitY=0.5;exitDx=0;exitDy=0;entryX=0;entryY=0.5;entryDx=0;entryDy=0;dashed=1;" parent="aIsUO63s0qGLavfYm9hK-15" source="aIsUO63s0qGLavfYm9hK-20" target="YTfYLhVvecyiPPeJRuu2-4" edge="1">
          <mxGeometry relative="1" as="geometry" />
        </mxCell>
        <mxCell id="YTfYLhVvecyiPPeJRuu2-9" style="edgeStyle=orthogonalEdgeStyle;rounded=0;orthogonalLoop=1;jettySize=auto;html=1;exitX=1;exitY=0.75;exitDx=0;exitDy=0;entryX=0;entryY=0.5;entryDx=0;entryDy=0;strokeWidth=3;" parent="aIsUO63s0qGLavfYm9hK-15" source="YTfYLhVvecyiPPeJRuu2-5" target="aIsUO63s0qGLavfYm9hK-16" edge="1">
          <mxGeometry relative="1" as="geometry">
            <Array as="points">
              <mxPoint x="680" y="365" />
              <mxPoint x="680" y="190" />
            </Array>
          </mxGeometry>
        </mxCell>
        <mxCell id="aIsUO63s0qGLavfYm9hK-4" value="&lt;font style=&quot;font-size: 28px;&quot;&gt;BingX&lt;/font&gt;" style="swimlane;whiteSpace=wrap;html=1;startSize=50;fillColor=#e1d5e7;strokeColor=#9673a6;" parent="aIsUO63s0qGLavfYm9hK-65" vertex="1">
          <mxGeometry x="1620" y="830" width="1410" height="490" as="geometry" />
        </mxCell>
        <mxCell id="aIsUO63s0qGLavfYm9hK-5" value="&lt;font style=&quot;font-size: 21px;&quot;&gt;Market Data&lt;/font&gt;" style="swimlane;whiteSpace=wrap;html=1;fontSize=20;fillColor=#e1d5e7;strokeColor=#9673a6;startSize=50;" parent="aIsUO63s0qGLavfYm9hK-4" vertex="1">
          <mxGeometry x="510" y="110" width="490" height="300" as="geometry" />
        </mxCell>
        <mxCell id="juW5SHX6EJvpepixXXVf-4" value="INFORMACION DE LAS VELAS" style="rounded=0;whiteSpace=wrap;html=1;fontSize=21;" parent="aIsUO63s0qGLavfYm9hK-5" vertex="1">
          <mxGeometry x="50" y="130" width="230" height="100" as="geometry" />
        </mxCell>
        <UserObject label="DOC API" link="https://bingx-api.github.io/docs/#/en-us/swapV2/trade-api.html#Trade%20order%20test" id="juW5SHX6EJvpepixXXVf-9">
          <mxCell style="rounded=0;whiteSpace=wrap;html=1;fontColor=#3333FF;fontStyle=4;fontSize=20;" parent="aIsUO63s0qGLavfYm9hK-5" vertex="1">
            <mxGeometry x="310" y="130" width="150" height="100" as="geometry" />
          </mxCell>
        </UserObject>
        <mxCell id="aIsUO63s0qGLavfYm9hK-8" value="&lt;font style=&quot;font-size: 21px;&quot;&gt;Trading Operations&lt;/font&gt;" style="swimlane;whiteSpace=wrap;html=1;fontSize=20;fillColor=#e1d5e7;strokeColor=#9673a6;startSize=50;" parent="aIsUO63s0qGLavfYm9hK-4" vertex="1">
          <mxGeometry x="50" y="110" width="360" height="300" as="geometry" />
        </mxCell>
        <mxCell id="aIsUO63s0qGLavfYm9hK-9" value="Perpetual Futures" style="swimlane;whiteSpace=wrap;html=1;fontSize=21;startSize=50;fillColor=#e1d5e7;strokeColor=#9673a6;" parent="aIsUO63s0qGLavfYm9hK-8" vertex="1">
          <mxGeometry x="40" y="90" width="280" height="170" as="geometry" />
        </mxCell>
        <mxCell id="aIsUO63s0qGLavfYm9hK-10" value="USDT-M Perp" style="rounded=0;whiteSpace=wrap;html=1;fontSize=20;" parent="aIsUO63s0qGLavfYm9hK-9" vertex="1">
          <mxGeometry x="20" y="90" width="120" height="60" as="geometry" />
        </mxCell>
        <UserObject label="DOC API" link="https://bingx-api.github.io/docs/#/en-us/swapV2/trade-api.html#Trade%20order%20test" id="aIsUO63s0qGLavfYm9hK-11">
          <mxCell style="rounded=0;whiteSpace=wrap;html=1;fontColor=#3333FF;fontStyle=4;fontSize=20;" parent="aIsUO63s0qGLavfYm9hK-9" vertex="1">
            <mxGeometry x="150" y="90" width="120" height="60" as="geometry" />
          </mxCell>
        </UserObject>
        <mxCell id="YTfYLhVvecyiPPeJRuu2-12" value="&lt;br&gt;&lt;div style=&quot;forced-color-adjust: none; color: rgb(0, 0, 0); font-family: Helvetica; font-style: normal; font-variant-ligatures: normal; font-variant-caps: normal; font-weight: 700; letter-spacing: normal; orphans: 2; text-align: center; text-indent: 0px; text-transform: none; widows: 2; word-spacing: 0px; -webkit-text-stroke-width: 0px; white-space: normal; text-decoration-thickness: initial; text-decoration-style: initial; text-decoration-color: initial; font-size: 31px;&quot;&gt;&lt;font style=&quot;forced-color-adjust: none; font-size: 31px;&quot;&gt;&lt;u style=&quot;forced-color-adjust: none;&quot;&gt;Back End.&lt;/u&gt;&lt;/font&gt;&lt;/div&gt;&lt;span style=&quot;font-size: 31px;&quot;&gt;&lt;u&gt;Amazon EC2 - Windows (BE-EC2)&lt;/u&gt;&lt;/span&gt;&lt;br&gt;&lt;div&gt;&lt;br&gt;&lt;/div&gt;" style="swimlane;whiteSpace=wrap;html=1;startSize=130;fillColor=#ffe6cc;strokeColor=#d79b00;strokeWidth=8;" parent="aIsUO63s0qGLavfYm9hK-65" vertex="1">
          <mxGeometry x="270" y="930" width="1060" height="720" as="geometry" />
        </mxCell>
        <mxCell id="YTfYLhVvecyiPPeJRuu2-13" value="Python" style="swimlane;whiteSpace=wrap;html=1;startSize=60;fontSize=20;fillColor=#ffe6cc;strokeColor=#d79b00;" parent="YTfYLhVvecyiPPeJRuu2-12" vertex="1">
          <mxGeometry x="60" y="190" width="890" height="460" as="geometry" />
        </mxCell>
        <mxCell id="YTfYLhVvecyiPPeJRuu2-20" style="edgeStyle=orthogonalEdgeStyle;rounded=0;orthogonalLoop=1;jettySize=auto;html=1;exitX=1;exitY=0.5;exitDx=0;exitDy=0;entryX=0;entryY=0.5;entryDx=0;entryDy=0;fontSize=26;" parent="YTfYLhVvecyiPPeJRuu2-13" source="YTfYLhVvecyiPPeJRuu2-17" target="YTfYLhVvecyiPPeJRuu2-18" edge="1">
          <mxGeometry relative="1" as="geometry" />
        </mxCell>
        <mxCell id="YTfYLhVvecyiPPeJRuu2-22" value="&lt;font style=&quot;font-size: 22px;&quot;&gt;Alerta&lt;/font&gt;" style="edgeLabel;html=1;align=center;verticalAlign=middle;resizable=0;points=[];" parent="YTfYLhVvecyiPPeJRuu2-20" vertex="1" connectable="0">
          <mxGeometry x="-0.1055" y="5" relative="1" as="geometry">
            <mxPoint x="12" y="5" as="offset" />
          </mxGeometry>
        </mxCell>
        <mxCell id="YTfYLhVvecyiPPeJRuu2-17" value="&lt;font style=&quot;font-size: 21px;&quot;&gt;Flask Server&lt;/font&gt;" style="swimlane;whiteSpace=wrap;html=1;startSize=40;" parent="YTfYLhVvecyiPPeJRuu2-13" vertex="1">
          <mxGeometry x="90" y="130" width="200" height="210" as="geometry" />
        </mxCell>
        <mxCell id="YTfYLhVvecyiPPeJRuu2-21" value="Socket Puerto 80" style="rounded=0;whiteSpace=wrap;html=1;" parent="YTfYLhVvecyiPPeJRuu2-17" vertex="1">
          <mxGeometry x="40" y="85" width="120" height="60" as="geometry" />
        </mxCell>
        <mxCell id="YTfYLhVvecyiPPeJRuu2-18" value="&lt;font style=&quot;font-size: 21px;&quot;&gt;Procesamiento Alerta&lt;/font&gt;" style="swimlane;whiteSpace=wrap;html=1;startSize=40;" parent="YTfYLhVvecyiPPeJRuu2-13" vertex="1">
          <mxGeometry x="420" y="130" width="410" height="280" as="geometry" />
        </mxCell>
        <mxCell id="juW5SHX6EJvpepixXXVf-24" value="POST HTTPS 443" style="rounded=0;whiteSpace=wrap;html=1;" parent="YTfYLhVvecyiPPeJRuu2-18" vertex="1">
          <mxGeometry x="60" y="190" width="290" height="60" as="geometry" />
        </mxCell>
        <mxCell id="juW5SHX6EJvpepixXXVf-25" value="POST MEDIANTE API DE BINGX" style="rounded=0;whiteSpace=wrap;html=1;" parent="YTfYLhVvecyiPPeJRuu2-18" vertex="1">
          <mxGeometry x="60" y="100" width="290" height="60" as="geometry" />
        </mxCell>
        <mxCell id="YTfYLhVvecyiPPeJRuu2-19" value="Alerta" style="edgeStyle=orthogonalEdgeStyle;rounded=0;orthogonalLoop=1;jettySize=auto;html=1;exitX=0.5;exitY=1;exitDx=0;exitDy=0;entryX=0.25;entryY=0;entryDx=0;entryDy=0;strokeWidth=10;fontSize=30;fontStyle=1" parent="aIsUO63s0qGLavfYm9hK-65" source="aIsUO63s0qGLavfYm9hK-16" target="YTfYLhVvecyiPPeJRuu2-17" edge="1">
          <mxGeometry x="0.0006" relative="1" as="geometry">
            <Array as="points">
              <mxPoint x="1130" y="870" />
              <mxPoint x="470" y="870" />
            </Array>
            <mxPoint as="offset" />
          </mxGeometry>
        </mxCell>
        <mxCell id="YTfYLhVvecyiPPeJRuu2-23" value="&lt;font style=&quot;font-size: 31px;&quot;&gt;&lt;br style=&quot;&quot;&gt;&lt;/font&gt;&lt;div style=&quot;forced-color-adjust: none; color: rgb(0, 0, 0); font-family: Helvetica; font-style: normal; font-variant-ligatures: normal; font-variant-caps: normal; font-weight: 700; letter-spacing: normal; orphans: 2; text-align: center; text-indent: 0px; text-transform: none; widows: 2; word-spacing: 0px; -webkit-text-stroke-width: 0px; white-space: normal; text-decoration-thickness: initial; text-decoration-style: initial; text-decoration-color: initial; font-size: 31px;&quot;&gt;&lt;font style=&quot;forced-color-adjust: none; font-size: 31px;&quot;&gt;&lt;u style=&quot;forced-color-adjust: none;&quot;&gt;Back End.&lt;/u&gt;&lt;/font&gt;&lt;/div&gt;&lt;font style=&quot;font-size: 31px;&quot;&gt;&lt;u style=&quot;&quot;&gt;Siteground (BE-SG)&lt;/u&gt;&lt;br style=&quot;&quot;&gt;&lt;/font&gt;&lt;div style=&quot;font-size: 31px;&quot;&gt;&lt;br style=&quot;&quot;&gt;&lt;/div&gt;" style="swimlane;whiteSpace=wrap;html=1;startSize=130;fillColor=#f8cecc;strokeColor=#b85450;strokeWidth=8;fontSize=13;" parent="aIsUO63s0qGLavfYm9hK-65" vertex="1">
          <mxGeometry x="270" y="1810" width="1310" height="1160" as="geometry" />
        </mxCell>
        <mxCell id="aIsUO63s0qGLavfYm9hK-48" value="BD MySQL&lt;div&gt;&#39;Velas&#39;&lt;/div&gt;" style="shape=cylinder3;whiteSpace=wrap;html=1;boundedLbl=1;backgroundOutline=1;size=15;fillColor=#fff2cc;strokeColor=#d6b656;fontSize=23;" parent="YTfYLhVvecyiPPeJRuu2-23" vertex="1">
          <mxGeometry x="120" y="610" width="170" height="200" as="geometry" />
        </mxCell>
        <mxCell id="juW5SHX6EJvpepixXXVf-13" value="Servicios" style="swimlane;whiteSpace=wrap;html=1;startSize=60;fontSize=22;" parent="YTfYLhVvecyiPPeJRuu2-23" vertex="1">
          <mxGeometry x="650" y="300" width="520" height="770" as="geometry" />
        </mxCell>
        <mxCell id="juW5SHX6EJvpepixXXVf-14" value="HTTP POST - http://beelzebot.com/orden" style="rounded=0;whiteSpace=wrap;html=1;fontSize=24;" parent="juW5SHX6EJvpepixXXVf-13" vertex="1">
          <mxGeometry x="60" y="120" width="400" height="100" as="geometry" />
        </mxCell>
        <mxCell id="juW5SHX6EJvpepixXXVf-16" value="API POST - http://beelzebot.com/data_velas" style="rounded=0;whiteSpace=wrap;html=1;fontSize=24;" parent="juW5SHX6EJvpepixXXVf-13" vertex="1">
          <mxGeometry x="60" y="270" width="400" height="100" as="geometry" />
        </mxCell>
        <mxCell id="juW5SHX6EJvpepixXXVf-18" value="" style="rounded=0;whiteSpace=wrap;html=1;fontSize=24;" parent="juW5SHX6EJvpepixXXVf-13" vertex="1">
          <mxGeometry x="40" y="540" width="450" height="160" as="geometry" />
        </mxCell>
        <mxCell id="juW5SHX6EJvpepixXXVf-23" style="edgeStyle=orthogonalEdgeStyle;rounded=0;orthogonalLoop=1;jettySize=auto;html=1;exitX=1;exitY=0.5;exitDx=0;exitDy=0;entryX=0;entryY=0.5;entryDx=0;entryDy=0;" parent="juW5SHX6EJvpepixXXVf-13" source="juW5SHX6EJvpepixXXVf-21" target="juW5SHX6EJvpepixXXVf-22" edge="1">
          <mxGeometry relative="1" as="geometry" />
        </mxCell>
        <mxCell id="juW5SHX6EJvpepixXXVf-21" value="MySQL" style="rounded=0;whiteSpace=wrap;html=1;" parent="juW5SHX6EJvpepixXXVf-13" vertex="1">
          <mxGeometry x="80" y="570" width="160" height="100" as="geometry" />
        </mxCell>
        <mxCell id="juW5SHX6EJvpepixXXVf-22" value="HTTP POST" style="rounded=0;whiteSpace=wrap;html=1;" parent="juW5SHX6EJvpepixXXVf-13" vertex="1">
          <mxGeometry x="310" y="570" width="160" height="100" as="geometry" />
        </mxCell>
        <mxCell id="juW5SHX6EJvpepixXXVf-15" style="edgeStyle=orthogonalEdgeStyle;rounded=0;orthogonalLoop=1;jettySize=auto;html=1;exitX=0;exitY=0.5;exitDx=0;exitDy=0;strokeWidth=3;entryX=1;entryY=0.5;entryDx=0;entryDy=0;entryPerimeter=0;" parent="YTfYLhVvecyiPPeJRuu2-23" source="juW5SHX6EJvpepixXXVf-14" target="juW5SHX6EJvpepixXXVf-26" edge="1">
          <mxGeometry relative="1" as="geometry" />
        </mxCell>
        <mxCell id="juW5SHX6EJvpepixXXVf-17" style="edgeStyle=orthogonalEdgeStyle;rounded=0;orthogonalLoop=1;jettySize=auto;html=1;exitX=0;exitY=0.5;exitDx=0;exitDy=0;strokeWidth=3;fontSize=15;" parent="YTfYLhVvecyiPPeJRuu2-23" source="juW5SHX6EJvpepixXXVf-16" target="aIsUO63s0qGLavfYm9hK-48" edge="1">
          <mxGeometry relative="1" as="geometry" />
        </mxCell>
        <mxCell id="juW5SHX6EJvpepixXXVf-20" style="edgeStyle=orthogonalEdgeStyle;rounded=0;orthogonalLoop=1;jettySize=auto;html=1;exitX=0;exitY=0.5;exitDx=0;exitDy=0;entryX=0.5;entryY=1;entryDx=0;entryDy=0;entryPerimeter=0;startArrow=classic;startFill=1;strokeWidth=4;" parent="YTfYLhVvecyiPPeJRuu2-23" source="juW5SHX6EJvpepixXXVf-21" target="aIsUO63s0qGLavfYm9hK-48" edge="1">
          <mxGeometry relative="1" as="geometry" />
        </mxCell>
        <mxCell id="juW5SHX6EJvpepixXXVf-26" value="BD MySQL&lt;div&gt;&#39;Ordenes&#39;&lt;/div&gt;" style="shape=cylinder3;whiteSpace=wrap;html=1;boundedLbl=1;backgroundOutline=1;size=15;fillColor=#eeeeee;strokeColor=#36393d;fontSize=23;" parent="YTfYLhVvecyiPPeJRuu2-23" vertex="1">
          <mxGeometry x="120" y="300" width="170" height="200" as="geometry" />
        </mxCell>
        <mxCell id="YTfYLhVvecyiPPeJRuu2-31" value="Informacion Orden" style="edgeStyle=orthogonalEdgeStyle;rounded=0;orthogonalLoop=1;jettySize=auto;html=1;fontSize=30;strokeWidth=10;fontStyle=1;entryX=0.333;entryY=-0.03;entryDx=0;entryDy=0;entryPerimeter=0;exitX=1;exitY=0.5;exitDx=0;exitDy=0;" parent="aIsUO63s0qGLavfYm9hK-65" source="juW5SHX6EJvpepixXXVf-24" target="juW5SHX6EJvpepixXXVf-14" edge="1">
          <mxGeometry x="-0.0084" relative="1" as="geometry">
            <mxPoint x="1160" y="1500" as="sourcePoint" />
            <mxPoint x="1170" y="2149.9999999999995" as="targetPoint" />
            <Array as="points">
              <mxPoint x="1510" y="1470" />
              <mxPoint x="1510" y="1720" />
              <mxPoint x="1113" y="1720" />
            </Array>
            <mxPoint as="offset" />
          </mxGeometry>
        </mxCell>
        <mxCell id="YTfYLhVvecyiPPeJRuu2-32" value="Orden" style="edgeStyle=orthogonalEdgeStyle;rounded=0;orthogonalLoop=1;jettySize=auto;html=1;exitX=1;exitY=0.5;exitDx=0;exitDy=0;entryX=0.5;entryY=1;entryDx=0;entryDy=0;strokeWidth=10;fontSize=30;fontStyle=1" parent="aIsUO63s0qGLavfYm9hK-65" source="juW5SHX6EJvpepixXXVf-25" target="aIsUO63s0qGLavfYm9hK-8" edge="1">
          <mxGeometry relative="1" as="geometry" />
        </mxCell>
        <mxCell id="YTfYLhVvecyiPPeJRuu2-33" value="&lt;br&gt;&lt;div style=&quot;forced-color-adjust: none; color: rgb(0, 0, 0); font-family: Helvetica; font-style: normal; font-variant-ligatures: normal; font-variant-caps: normal; font-weight: 700; letter-spacing: normal; orphans: 2; text-align: center; text-indent: 0px; text-transform: none; widows: 2; word-spacing: 0px; -webkit-text-stroke-width: 0px; white-space: normal; text-decoration-thickness: initial; text-decoration-style: initial; text-decoration-color: initial; font-size: 31px;&quot;&gt;&lt;font style=&quot;forced-color-adjust: none; font-size: 31px;&quot;&gt;&lt;u style=&quot;forced-color-adjust: none;&quot;&gt;Front End&lt;/u&gt;&lt;/font&gt;&lt;/div&gt;&lt;span style=&quot;font-size: 31px;&quot;&gt;&lt;u&gt;Siteground (FE-SG)&lt;/u&gt;&lt;/span&gt;&lt;br&gt;&lt;div&gt;&lt;br&gt;&lt;/div&gt;" style="swimlane;whiteSpace=wrap;html=1;startSize=130;fillColor=#d5e8d4;strokeColor=#82b366;strokeWidth=8;" parent="aIsUO63s0qGLavfYm9hK-65" vertex="1">
          <mxGeometry x="2080" y="1940" width="1370" height="880" as="geometry" />
        </mxCell>
        <mxCell id="juW5SHX6EJvpepixXXVf-2" style="edgeStyle=orthogonalEdgeStyle;rounded=0;orthogonalLoop=1;jettySize=auto;html=1;exitX=0.25;exitY=1;exitDx=0;exitDy=0;entryX=1;entryY=0.5;entryDx=0;entryDy=0;strokeWidth=10;" parent="aIsUO63s0qGLavfYm9hK-65" source="aIsUO63s0qGLavfYm9hK-5" target="juW5SHX6EJvpepixXXVf-16" edge="1">
          <mxGeometry relative="1" as="geometry">
            <mxPoint x="1280" y="2240.02" as="targetPoint" />
            <Array as="points">
              <mxPoint x="2230" y="1240" />
              <mxPoint x="2230" y="1750" />
              <mxPoint x="1780" y="1750" />
              <mxPoint x="1780" y="2430" />
            </Array>
          </mxGeometry>
        </mxCell>
        <mxCell id="juW5SHX6EJvpepixXXVf-10" style="edgeStyle=orthogonalEdgeStyle;rounded=0;orthogonalLoop=1;jettySize=auto;html=1;entryX=0.5;entryY=0;entryDx=0;entryDy=0;fontSize=20;strokeWidth=8;" parent="aIsUO63s0qGLavfYm9hK-65" target="YTfYLhVvecyiPPeJRuu2-33" edge="1">
          <mxGeometry relative="1" as="geometry">
            <mxPoint x="2230" y="1250" as="sourcePoint" />
          </mxGeometry>
        </mxCell>
        <mxCell id="juW5SHX6EJvpepixXXVf-11" style="edgeStyle=orthogonalEdgeStyle;rounded=0;orthogonalLoop=1;jettySize=auto;html=1;entryX=0;entryY=0.5;entryDx=0;entryDy=0;strokeWidth=10;exitX=1;exitY=0.5;exitDx=0;exitDy=0;" parent="aIsUO63s0qGLavfYm9hK-65" source="juW5SHX6EJvpepixXXVf-22" target="YTfYLhVvecyiPPeJRuu2-33" edge="1">
          <mxGeometry relative="1" as="geometry">
            <mxPoint x="1670" y="2530" as="sourcePoint" />
            <Array as="points">
              <mxPoint x="1876" y="2730" />
              <mxPoint x="1876" y="2380" />
            </Array>
          </mxGeometry>
        </mxCell>
      </root>
    </mxGraphModel>
  </diagram>
  <diagram name="Arquitectura Desarrollo+Produccion" id="lH2Tz07uko_5ZBatUZiz">
    <mxGraphModel dx="6647" dy="5689" grid="1" gridSize="10" guides="1" tooltips="1" connect="1" arrows="1" fold="1" page="1" pageScale="1" pageWidth="850" pageHeight="1100" math="0" shadow="0">
      <root>
        <mxCell id="bkbN4g5Q3BRWfxt6GOeO-0" />
        <mxCell id="bkbN4g5Q3BRWfxt6GOeO-1" parent="bkbN4g5Q3BRWfxt6GOeO-0" />
        <mxCell id="bkbN4g5Q3BRWfxt6GOeO-2" value="&lt;font style=&quot;font-size: 61px;&quot;&gt;ARQUITECTURA SISTEMA - TRADER PELUSA&lt;/font&gt;" style="swimlane;whiteSpace=wrap;html=1;strokeWidth=11;startSize=190;fillColor=#fff2cc;strokeColor=default;" parent="bkbN4g5Q3BRWfxt6GOeO-1" vertex="1">
          <mxGeometry x="-2350" y="-2750" width="5740" height="4390" as="geometry" />
        </mxCell>
        <mxCell id="bkbN4g5Q3BRWfxt6GOeO-3" value="&lt;font style=&quot;font-size: 28px;&quot;&gt;TradingView&lt;/font&gt;" style="swimlane;whiteSpace=wrap;html=1;startSize=50;fillColor=#bac8d3;strokeColor=#23445d;" parent="bkbN4g5Q3BRWfxt6GOeO-2" vertex="1">
          <mxGeometry x="260" y="320" width="1050" height="440" as="geometry" />
        </mxCell>
        <mxCell id="bkbN4g5Q3BRWfxt6GOeO-4" value="Trading" style="swimlane;whiteSpace=wrap;html=1;fontSize=21;startSize=40;fillColor=#bac8d3;strokeColor=#23445d;" parent="bkbN4g5Q3BRWfxt6GOeO-3" vertex="1">
          <mxGeometry x="40" y="110" width="240" height="160" as="geometry" />
        </mxCell>
        <mxCell id="bkbN4g5Q3BRWfxt6GOeO-5" value="Pinescrept" style="rounded=0;whiteSpace=wrap;html=1;fontSize=20;" parent="bkbN4g5Q3BRWfxt6GOeO-4" vertex="1">
          <mxGeometry x="34.97" y="60" width="170.06" height="60" as="geometry" />
        </mxCell>
        <mxCell id="bkbN4g5Q3BRWfxt6GOeO-6" value="WebHook" style="swimlane;whiteSpace=wrap;html=1;fontSize=21;startSize=40;fillColor=#bac8d3;strokeColor=#23445d;" parent="bkbN4g5Q3BRWfxt6GOeO-3" vertex="1">
          <mxGeometry x="730" y="90" width="280" height="200" as="geometry" />
        </mxCell>
        <mxCell id="bkbN4g5Q3BRWfxt6GOeO-7" value="Puerto 80, solo de envio de informacion desde TradingView" style="rounded=0;whiteSpace=wrap;html=1;" parent="bkbN4g5Q3BRWfxt6GOeO-6" vertex="1">
          <mxGeometry x="30" y="60" width="210" height="110" as="geometry" />
        </mxCell>
        <mxCell id="bkbN4g5Q3BRWfxt6GOeO-8" value="Alertas" style="swimlane;whiteSpace=wrap;html=1;fontSize=21;startSize=40;fillColor=#bac8d3;strokeColor=#23445d;" parent="bkbN4g5Q3BRWfxt6GOeO-3" vertex="1">
          <mxGeometry x="350" y="90" width="280" height="310" as="geometry" />
        </mxCell>
        <mxCell id="bkbN4g5Q3BRWfxt6GOeO-9" style="edgeStyle=orthogonalEdgeStyle;rounded=0;orthogonalLoop=1;jettySize=auto;html=1;exitX=1;exitY=0.75;exitDx=0;exitDy=0;entryX=1;entryY=0.25;entryDx=0;entryDy=0;" parent="bkbN4g5Q3BRWfxt6GOeO-8" source="bkbN4g5Q3BRWfxt6GOeO-10" target="bkbN4g5Q3BRWfxt6GOeO-13" edge="1">
          <mxGeometry relative="1" as="geometry" />
        </mxCell>
        <mxCell id="bkbN4g5Q3BRWfxt6GOeO-10" value="Configurar Alerta" style="rounded=0;whiteSpace=wrap;html=1;fontSize=20;" parent="bkbN4g5Q3BRWfxt6GOeO-8" vertex="1">
          <mxGeometry x="50" y="150" width="170.06" height="60" as="geometry" />
        </mxCell>
        <mxCell id="bkbN4g5Q3BRWfxt6GOeO-11" style="edgeStyle=orthogonalEdgeStyle;rounded=0;orthogonalLoop=1;jettySize=auto;html=1;exitX=1;exitY=0.5;exitDx=0;exitDy=0;entryX=1;entryY=0.25;entryDx=0;entryDy=0;" parent="bkbN4g5Q3BRWfxt6GOeO-8" source="bkbN4g5Q3BRWfxt6GOeO-12" target="bkbN4g5Q3BRWfxt6GOeO-10" edge="1">
          <mxGeometry relative="1" as="geometry" />
        </mxCell>
        <mxCell id="bkbN4g5Q3BRWfxt6GOeO-12" value="Agregar Alerta" style="rounded=0;whiteSpace=wrap;html=1;fontSize=20;" parent="bkbN4g5Q3BRWfxt6GOeO-8" vertex="1">
          <mxGeometry x="50" y="60" width="170.06" height="60" as="geometry" />
        </mxCell>
        <mxCell id="bkbN4g5Q3BRWfxt6GOeO-13" value="Crear Alerta" style="rounded=0;whiteSpace=wrap;html=1;fontSize=20;" parent="bkbN4g5Q3BRWfxt6GOeO-8" vertex="1">
          <mxGeometry x="50" y="230" width="170.06" height="60" as="geometry" />
        </mxCell>
        <mxCell id="bkbN4g5Q3BRWfxt6GOeO-14" style="edgeStyle=orthogonalEdgeStyle;rounded=0;orthogonalLoop=1;jettySize=auto;html=1;exitX=1;exitY=0.5;exitDx=0;exitDy=0;entryX=0;entryY=0.5;entryDx=0;entryDy=0;dashed=1;" parent="bkbN4g5Q3BRWfxt6GOeO-3" source="bkbN4g5Q3BRWfxt6GOeO-5" target="bkbN4g5Q3BRWfxt6GOeO-12" edge="1">
          <mxGeometry relative="1" as="geometry" />
        </mxCell>
        <mxCell id="bkbN4g5Q3BRWfxt6GOeO-15" style="edgeStyle=orthogonalEdgeStyle;rounded=0;orthogonalLoop=1;jettySize=auto;html=1;exitX=1;exitY=0.75;exitDx=0;exitDy=0;entryX=0;entryY=0.5;entryDx=0;entryDy=0;strokeWidth=3;" parent="bkbN4g5Q3BRWfxt6GOeO-3" source="bkbN4g5Q3BRWfxt6GOeO-13" target="bkbN4g5Q3BRWfxt6GOeO-6" edge="1">
          <mxGeometry relative="1" as="geometry">
            <Array as="points">
              <mxPoint x="680" y="365" />
              <mxPoint x="680" y="190" />
            </Array>
          </mxGeometry>
        </mxCell>
        <mxCell id="bkbN4g5Q3BRWfxt6GOeO-16" value="&lt;font style=&quot;font-size: 28px;&quot;&gt;BingX&lt;/font&gt;" style="swimlane;whiteSpace=wrap;html=1;startSize=50;fillColor=#e1d5e7;strokeColor=#9673a6;" parent="bkbN4g5Q3BRWfxt6GOeO-2" vertex="1">
          <mxGeometry x="1990" y="350" width="1070" height="490" as="geometry" />
        </mxCell>
        <mxCell id="bkbN4g5Q3BRWfxt6GOeO-20" value="&lt;font style=&quot;font-size: 21px;&quot;&gt;Trading Operations&lt;/font&gt;" style="swimlane;whiteSpace=wrap;html=1;fontSize=20;fillColor=#e1d5e7;strokeColor=#9673a6;startSize=50;" parent="bkbN4g5Q3BRWfxt6GOeO-16" vertex="1">
          <mxGeometry x="50" y="110" width="360" height="300" as="geometry" />
        </mxCell>
        <mxCell id="bkbN4g5Q3BRWfxt6GOeO-21" value="Perpetual Futures" style="swimlane;whiteSpace=wrap;html=1;fontSize=21;startSize=50;fillColor=#e1d5e7;strokeColor=#9673a6;" parent="bkbN4g5Q3BRWfxt6GOeO-20" vertex="1">
          <mxGeometry x="40" y="90" width="280" height="170" as="geometry" />
        </mxCell>
        <mxCell id="bkbN4g5Q3BRWfxt6GOeO-22" value="USDT-M Perp" style="rounded=0;whiteSpace=wrap;html=1;fontSize=20;" parent="bkbN4g5Q3BRWfxt6GOeO-21" vertex="1">
          <mxGeometry x="20" y="90" width="120" height="60" as="geometry" />
        </mxCell>
        <UserObject label="DOC API" link="https://bingx-api.github.io/docs/#/en-us/swapV2/trade-api.html#Trade%20order%20test" id="bkbN4g5Q3BRWfxt6GOeO-23">
          <mxCell style="rounded=0;whiteSpace=wrap;html=1;fontColor=#3333FF;fontStyle=4;fontSize=20;" parent="bkbN4g5Q3BRWfxt6GOeO-21" vertex="1">
            <mxGeometry x="150" y="90" width="120" height="60" as="geometry" />
          </mxCell>
        </UserObject>
        <mxCell id="bkbN4g5Q3BRWfxt6GOeO-24" value="&lt;br&gt;&lt;div style=&quot;forced-color-adjust: none; color: rgb(0, 0, 0); font-family: Helvetica; font-style: normal; font-variant-ligatures: normal; font-variant-caps: normal; font-weight: 700; letter-spacing: normal; orphans: 2; text-align: center; text-indent: 0px; text-transform: none; widows: 2; word-spacing: 0px; -webkit-text-stroke-width: 0px; white-space: normal; text-decoration-thickness: initial; text-decoration-style: initial; text-decoration-color: initial; font-size: 31px;&quot;&gt;&lt;font style=&quot;forced-color-adjust: none; font-size: 31px;&quot;&gt;&lt;u style=&quot;forced-color-adjust: none;&quot;&gt;Back End.&lt;/u&gt;&lt;/font&gt;&lt;/div&gt;&lt;span style=&quot;font-size: 31px;&quot;&gt;&lt;u&gt;Amazon EC2 - Windows (BE-EC2)&lt;/u&gt;&lt;/span&gt;&lt;div&gt;&lt;span style=&quot;font-size: 31px;&quot;&gt;&lt;u&gt;DESARROLLO&lt;br&gt;&lt;/u&gt;&lt;/span&gt;&lt;div&gt;&lt;br&gt;&lt;/div&gt;&lt;/div&gt;" style="swimlane;whiteSpace=wrap;html=1;startSize=130;fillColor=#ffe6cc;strokeColor=#d79b00;strokeWidth=8;" parent="bkbN4g5Q3BRWfxt6GOeO-2" vertex="1">
          <mxGeometry x="270" y="1050" width="1060" height="1910" as="geometry" />
        </mxCell>
        <mxCell id="bkbN4g5Q3BRWfxt6GOeO-25" value="Python" style="swimlane;whiteSpace=wrap;html=1;startSize=60;fontSize=20;fillColor=#ffe6cc;strokeColor=#d79b00;strokeWidth=6;" parent="bkbN4g5Q3BRWfxt6GOeO-24" vertex="1">
          <mxGeometry x="60" y="190" width="890" height="1630" as="geometry" />
        </mxCell>
        <mxCell id="bkbN4g5Q3BRWfxt6GOeO-26" style="edgeStyle=orthogonalEdgeStyle;rounded=0;orthogonalLoop=1;jettySize=auto;html=1;exitX=1;exitY=0.5;exitDx=0;exitDy=0;entryX=0;entryY=0.5;entryDx=0;entryDy=0;fontSize=26;" parent="bkbN4g5Q3BRWfxt6GOeO-25" source="Z1lv3L_EZdjvVXRhWaT1-11" target="bkbN4g5Q3BRWfxt6GOeO-32" edge="1">
          <mxGeometry relative="1" as="geometry" />
        </mxCell>
        <mxCell id="bkbN4g5Q3BRWfxt6GOeO-27" value="&lt;font style=&quot;font-size: 22px;&quot;&gt;Alerta&lt;/font&gt;" style="edgeLabel;html=1;align=center;verticalAlign=middle;resizable=0;points=[];" parent="bkbN4g5Q3BRWfxt6GOeO-26" vertex="1" connectable="0">
          <mxGeometry x="-0.1055" y="5" relative="1" as="geometry">
            <mxPoint x="12" y="5" as="offset" />
          </mxGeometry>
        </mxCell>
        <mxCell id="bkbN4g5Q3BRWfxt6GOeO-28" value="&lt;font style=&quot;font-size: 23px;&quot;&gt;Flask Server. Puerto 80&lt;/font&gt;" style="swimlane;whiteSpace=wrap;html=1;startSize=40;fontSize=23;" parent="bkbN4g5Q3BRWfxt6GOeO-25" vertex="1">
          <mxGeometry x="40" y="130" width="260" height="240" as="geometry" />
        </mxCell>
        <mxCell id="Z1lv3L_EZdjvVXRhWaT1-11" value="Endpoint:&lt;div style=&quot;font-size: 20px;&quot;&gt;alarms/webhook&lt;/div&gt;" style="rounded=0;whiteSpace=wrap;html=1;fontSize=20;" parent="bkbN4g5Q3BRWfxt6GOeO-28" vertex="1">
          <mxGeometry x="40" y="80" width="180" height="100" as="geometry" />
        </mxCell>
        <mxCell id="bkbN4g5Q3BRWfxt6GOeO-30" value="&lt;font style=&quot;font-size: 23px;&quot;&gt;Procesamiento Alarma&lt;/font&gt;" style="swimlane;whiteSpace=wrap;html=1;startSize=40;fontSize=23;" parent="bkbN4g5Q3BRWfxt6GOeO-25" vertex="1">
          <mxGeometry x="420" y="130" width="410" height="360" as="geometry" />
        </mxCell>
        <mxCell id="bkbN4g5Q3BRWfxt6GOeO-31" value="Guardar data de Alarma de TradingView" style="rounded=0;whiteSpace=wrap;html=1;fontSize=20;" parent="bkbN4g5Q3BRWfxt6GOeO-30" vertex="1">
          <mxGeometry x="60" y="170" width="290" height="60" as="geometry" />
        </mxCell>
        <mxCell id="Z1lv3L_EZdjvVXRhWaT1-12" style="edgeStyle=orthogonalEdgeStyle;rounded=0;orthogonalLoop=1;jettySize=auto;html=1;exitX=0.5;exitY=1;exitDx=0;exitDy=0;entryX=0.5;entryY=0;entryDx=0;entryDy=0;" parent="bkbN4g5Q3BRWfxt6GOeO-30" source="bkbN4g5Q3BRWfxt6GOeO-32" target="bkbN4g5Q3BRWfxt6GOeO-31" edge="1">
          <mxGeometry relative="1" as="geometry" />
        </mxCell>
        <mxCell id="bkbN4g5Q3BRWfxt6GOeO-32" value="&lt;font style=&quot;font-size: 20px;&quot;&gt;Parsear Alerta de TradingView&lt;/font&gt;" style="rounded=0;whiteSpace=wrap;html=1;" parent="bkbN4g5Q3BRWfxt6GOeO-30" vertex="1">
          <mxGeometry x="60" y="80" width="290" height="60" as="geometry" />
        </mxCell>
        <mxCell id="Z1lv3L_EZdjvVXRhWaT1-28" value="Procesamiento Operacion" style="swimlane;whiteSpace=wrap;html=1;startSize=40;fontSize=23;" parent="bkbN4g5Q3BRWfxt6GOeO-25" vertex="1">
          <mxGeometry x="410" y="560" width="410" height="420" as="geometry" />
        </mxCell>
        <mxCell id="Z1lv3L_EZdjvVXRhWaT1-33" style="edgeStyle=orthogonalEdgeStyle;rounded=0;orthogonalLoop=1;jettySize=auto;html=1;exitX=0.5;exitY=1;exitDx=0;exitDy=0;entryX=0.5;entryY=0;entryDx=0;entryDy=0;" parent="Z1lv3L_EZdjvVXRhWaT1-28" source="Z1lv3L_EZdjvVXRhWaT1-13" target="Z1lv3L_EZdjvVXRhWaT1-32" edge="1">
          <mxGeometry relative="1" as="geometry" />
        </mxCell>
        <mxCell id="Z1lv3L_EZdjvVXRhWaT1-13" value="&lt;font style=&quot;font-size: 20px;&quot;&gt;Realizar Operacion&lt;/font&gt;" style="rounded=0;whiteSpace=wrap;html=1;" parent="Z1lv3L_EZdjvVXRhWaT1-28" vertex="1">
          <mxGeometry x="70" y="190" width="290" height="60" as="geometry" />
        </mxCell>
        <mxCell id="Z1lv3L_EZdjvVXRhWaT1-32" value="Guardar data de Operacion realizada" style="rounded=0;whiteSpace=wrap;html=1;fontSize=20;" parent="Z1lv3L_EZdjvVXRhWaT1-28" vertex="1">
          <mxGeometry x="70" y="278" width="290" height="60" as="geometry" />
        </mxCell>
        <mxCell id="Z1lv3L_EZdjvVXRhWaT1-46" style="edgeStyle=orthogonalEdgeStyle;rounded=0;orthogonalLoop=1;jettySize=auto;html=1;exitX=0.5;exitY=1;exitDx=0;exitDy=0;entryX=0.5;entryY=0;entryDx=0;entryDy=0;" parent="Z1lv3L_EZdjvVXRhWaT1-28" source="Z1lv3L_EZdjvVXRhWaT1-45" target="Z1lv3L_EZdjvVXRhWaT1-13" edge="1">
          <mxGeometry relative="1" as="geometry" />
        </mxCell>
        <mxCell id="Z1lv3L_EZdjvVXRhWaT1-45" value="&lt;font style=&quot;font-size: 20px;&quot;&gt;Gestion de Operaciones&lt;/font&gt;" style="rounded=0;whiteSpace=wrap;html=1;" parent="Z1lv3L_EZdjvVXRhWaT1-28" vertex="1">
          <mxGeometry x="70" y="80" width="290" height="60" as="geometry" />
        </mxCell>
        <mxCell id="Z1lv3L_EZdjvVXRhWaT1-14" style="edgeStyle=orthogonalEdgeStyle;rounded=0;orthogonalLoop=1;jettySize=auto;html=1;exitX=0.5;exitY=1;exitDx=0;exitDy=0;strokeWidth=6;entryX=0.5;entryY=0;entryDx=0;entryDy=0;" parent="bkbN4g5Q3BRWfxt6GOeO-25" source="bkbN4g5Q3BRWfxt6GOeO-31" target="Z1lv3L_EZdjvVXRhWaT1-45" edge="1">
          <mxGeometry relative="1" as="geometry">
            <mxPoint x="510" y="530" as="targetPoint" />
          </mxGeometry>
        </mxCell>
        <mxCell id="Z1lv3L_EZdjvVXRhWaT1-17" value="Servicios" style="swimlane;whiteSpace=wrap;html=1;startSize=60;fontSize=22;" parent="bkbN4g5Q3BRWfxt6GOeO-25" vertex="1">
          <mxGeometry x="185" y="1040" width="520" height="430" as="geometry" />
        </mxCell>
        <mxCell id="Z1lv3L_EZdjvVXRhWaT1-18" value="HTTP POST - http://beelzebot.com/get_ordenes" style="rounded=0;whiteSpace=wrap;html=1;fontSize=24;" parent="Z1lv3L_EZdjvVXRhWaT1-17" vertex="1">
          <mxGeometry x="60" y="120" width="400" height="100" as="geometry" />
        </mxCell>
        <mxCell id="VxlaxJJWWcWtXpWew5wp-0" value="HTTP POST - http://beelzebot.com/get_alarms" style="rounded=0;whiteSpace=wrap;html=1;fontSize=24;" parent="Z1lv3L_EZdjvVXRhWaT1-17" vertex="1">
          <mxGeometry x="60" y="260" width="400" height="100" as="geometry" />
        </mxCell>
        <mxCell id="bkbN4g5Q3BRWfxt6GOeO-33" value="Alerta" style="edgeStyle=orthogonalEdgeStyle;rounded=0;orthogonalLoop=1;jettySize=auto;html=1;exitX=0.5;exitY=1;exitDx=0;exitDy=0;entryX=0.141;entryY=-0.053;entryDx=0;entryDy=0;strokeWidth=10;fontSize=30;fontStyle=1;entryPerimeter=0;" parent="bkbN4g5Q3BRWfxt6GOeO-2" source="bkbN4g5Q3BRWfxt6GOeO-6" target="Z1lv3L_EZdjvVXRhWaT1-11" edge="1">
          <mxGeometry x="0.0006" relative="1" as="geometry">
            <Array as="points">
              <mxPoint x="1130" y="870" />
              <mxPoint x="435" y="870" />
            </Array>
            <mxPoint as="offset" />
          </mxGeometry>
        </mxCell>
        <mxCell id="bkbN4g5Q3BRWfxt6GOeO-34" value="&lt;font style=&quot;font-size: 31px;&quot;&gt;&lt;br style=&quot;&quot;&gt;&lt;/font&gt;&lt;div style=&quot;forced-color-adjust: none; color: rgb(0, 0, 0); font-family: Helvetica; font-style: normal; font-variant-ligatures: normal; font-variant-caps: normal; font-weight: 700; letter-spacing: normal; orphans: 2; text-align: center; text-indent: 0px; text-transform: none; widows: 2; word-spacing: 0px; -webkit-text-stroke-width: 0px; white-space: normal; text-decoration-thickness: initial; text-decoration-style: initial; text-decoration-color: initial; font-size: 31px;&quot;&gt;&lt;font style=&quot;forced-color-adjust: none; font-size: 31px;&quot;&gt;&lt;u style=&quot;forced-color-adjust: none;&quot;&gt;Back End.&lt;/u&gt;&lt;/font&gt;&lt;/div&gt;&lt;div style=&quot;forced-color-adjust: none; color: rgb(0, 0, 0); font-family: Helvetica; font-style: normal; font-variant-ligatures: normal; font-variant-caps: normal; font-weight: 700; letter-spacing: normal; orphans: 2; text-align: center; text-indent: 0px; text-transform: none; widows: 2; word-spacing: 0px; -webkit-text-stroke-width: 0px; white-space: normal; text-decoration-thickness: initial; text-decoration-style: initial; text-decoration-color: initial; font-size: 31px;&quot;&gt;&lt;font style=&quot;forced-color-adjust: none; font-size: 31px;&quot;&gt;&lt;u style=&quot;forced-color-adjust: none;&quot;&gt;BD&lt;/u&gt;&lt;/font&gt;&lt;/div&gt;&lt;font style=&quot;font-size: 31px;&quot;&gt;&lt;u style=&quot;&quot;&gt;Siteground (BE-SG)&lt;/u&gt;&lt;br style=&quot;&quot;&gt;&lt;/font&gt;&lt;div style=&quot;font-size: 31px;&quot;&gt;&lt;br style=&quot;&quot;&gt;&lt;/div&gt;" style="swimlane;whiteSpace=wrap;html=1;startSize=130;fillColor=#f8cecc;strokeColor=#b85450;strokeWidth=8;fontSize=13;" parent="bkbN4g5Q3BRWfxt6GOeO-2" vertex="1">
          <mxGeometry x="690" y="3040" width="2720" height="1210" as="geometry" />
        </mxCell>
        <mxCell id="bkbN4g5Q3BRWfxt6GOeO-49" value="&lt;br&gt;&lt;div style=&quot;forced-color-adjust: none; color: rgb(0, 0, 0); font-family: Helvetica; font-style: normal; font-variant-ligatures: normal; font-variant-caps: normal; font-weight: 700; letter-spacing: normal; orphans: 2; text-align: center; text-indent: 0px; text-transform: none; widows: 2; word-spacing: 0px; -webkit-text-stroke-width: 0px; white-space: normal; text-decoration-thickness: initial; text-decoration-style: initial; text-decoration-color: initial; font-size: 31px;&quot;&gt;&lt;font style=&quot;forced-color-adjust: none; font-size: 31px;&quot;&gt;&lt;u style=&quot;forced-color-adjust: none;&quot;&gt;Front End&lt;/u&gt;&lt;/font&gt;&lt;/div&gt;&lt;span style=&quot;font-size: 31px;&quot;&gt;&lt;u&gt;Siteground (FE-SG)&lt;/u&gt;&lt;/span&gt;&lt;br&gt;&lt;div&gt;&lt;br&gt;&lt;/div&gt;" style="swimlane;whiteSpace=wrap;html=1;startSize=130;fillColor=#d5e8d4;strokeColor=#82b366;strokeWidth=8;" parent="bkbN4g5Q3BRWfxt6GOeO-2" vertex="1">
          <mxGeometry x="3610" y="1290" width="1370" height="880" as="geometry" />
        </mxCell>
        <mxCell id="Z1lv3L_EZdjvVXRhWaT1-0" value="&lt;br&gt;&lt;div style=&quot;forced-color-adjust: none; color: rgb(0, 0, 0); font-family: Helvetica; font-style: normal; font-variant-ligatures: normal; font-variant-caps: normal; font-weight: 700; letter-spacing: normal; orphans: 2; text-align: center; text-indent: 0px; text-transform: none; widows: 2; word-spacing: 0px; -webkit-text-stroke-width: 0px; white-space: normal; text-decoration-thickness: initial; text-decoration-style: initial; text-decoration-color: initial; font-size: 31px;&quot;&gt;&lt;font style=&quot;forced-color-adjust: none; font-size: 31px;&quot;&gt;&lt;u style=&quot;forced-color-adjust: none;&quot;&gt;Back End.&lt;/u&gt;&lt;/font&gt;&lt;/div&gt;&lt;span style=&quot;font-size: 31px;&quot;&gt;&lt;u&gt;Siteground (BE - SG - PYTHON)&lt;/u&gt;&lt;/span&gt;&lt;div&gt;&lt;span style=&quot;font-size: 31px;&quot;&gt;&lt;u&gt;PRODUCCION&lt;br&gt;&lt;/u&gt;&lt;/span&gt;&lt;div&gt;&lt;br&gt;&lt;/div&gt;&lt;/div&gt;" style="swimlane;whiteSpace=wrap;html=1;startSize=130;fillColor=#f8cecc;strokeColor=#b85450;strokeWidth=8;" parent="bkbN4g5Q3BRWfxt6GOeO-2" vertex="1">
          <mxGeometry x="1870" y="1160" width="1100" height="1340" as="geometry" />
        </mxCell>
        <mxCell id="Z1lv3L_EZdjvVXRhWaT1-1" value="Python" style="swimlane;whiteSpace=wrap;html=1;startSize=60;fontSize=20;fillColor=#ffe6cc;strokeColor=#d79b00;strokeWidth=6;" parent="Z1lv3L_EZdjvVXRhWaT1-0" vertex="1">
          <mxGeometry x="70" y="190" width="890" height="1070" as="geometry" />
        </mxCell>
        <mxCell id="Z1lv3L_EZdjvVXRhWaT1-15" value="&lt;font style=&quot;font-size: 20px;&quot;&gt;Version validada extraida de (BE-EC2)&amp;nbsp;&lt;/font&gt;" style="ellipse;shape=cloud;whiteSpace=wrap;html=1;fontSize=20;" parent="Z1lv3L_EZdjvVXRhWaT1-1" vertex="1">
          <mxGeometry x="130" y="230" width="570" height="696" as="geometry" />
        </mxCell>
        <mxCell id="Z1lv3L_EZdjvVXRhWaT1-9" value="&lt;font style=&quot;font-size: 30px;&quot;&gt;Alerta&lt;/font&gt;" style="edgeStyle=orthogonalEdgeStyle;rounded=0;orthogonalLoop=1;jettySize=auto;html=1;exitX=0.5;exitY=1;exitDx=0;exitDy=0;entryX=0.4;entryY=0.1;entryDx=0;entryDy=0;strokeWidth=10;fontSize=30;fontStyle=1;entryPerimeter=0;" parent="bkbN4g5Q3BRWfxt6GOeO-2" source="bkbN4g5Q3BRWfxt6GOeO-6" target="Z1lv3L_EZdjvVXRhWaT1-15" edge="1">
          <mxGeometry relative="1" as="geometry">
            <mxPoint x="1690" y="1370" as="targetPoint" />
            <Array as="points">
              <mxPoint x="1130" y="870" />
              <mxPoint x="1697" y="870" />
              <mxPoint x="1697" y="1476" />
              <mxPoint x="1888" y="1476" />
            </Array>
          </mxGeometry>
        </mxCell>
        <mxCell id="Z1lv3L_EZdjvVXRhWaT1-27" value="BASES DE DATOS DESARROLLO" style="swimlane;whiteSpace=wrap;html=1;startSize=70;fontSize=26;" parent="bkbN4g5Q3BRWfxt6GOeO-2" vertex="1">
          <mxGeometry x="1470" y="3230" width="450" height="970" as="geometry" />
        </mxCell>
        <mxCell id="Z1lv3L_EZdjvVXRhWaT1-16" value="BD MySQL&lt;div&gt;&#39;Desarrollo_Alarms&#39;&lt;/div&gt;" style="shape=cylinder3;whiteSpace=wrap;html=1;boundedLbl=1;backgroundOutline=1;size=15;fillColor=#dae8fc;strokeColor=#6c8ebf;fontSize=23;" parent="Z1lv3L_EZdjvVXRhWaT1-27" vertex="1">
          <mxGeometry x="100" y="130" width="230" height="200" as="geometry" />
        </mxCell>
        <mxCell id="Z1lv3L_EZdjvVXRhWaT1-24" value="BD MySQL&lt;div&gt;&#39;Desarrollo_Ordenes&#39;&lt;/div&gt;" style="shape=cylinder3;whiteSpace=wrap;html=1;boundedLbl=1;backgroundOutline=1;size=15;fillColor=#eeeeee;strokeColor=#36393d;fontSize=23;" parent="Z1lv3L_EZdjvVXRhWaT1-27" vertex="1">
          <mxGeometry x="100" y="430" width="230" height="200" as="geometry" />
        </mxCell>
        <mxCell id="Z1lv3L_EZdjvVXRhWaT1-25" value="BD MySQL&lt;div&gt;&#39;Desarrollo_Velas&#39;&lt;/div&gt;" style="shape=cylinder3;whiteSpace=wrap;html=1;boundedLbl=1;backgroundOutline=1;size=15;fillColor=#fff2cc;strokeColor=#d6b656;fontSize=23;" parent="Z1lv3L_EZdjvVXRhWaT1-27" vertex="1">
          <mxGeometry x="100" y="736" width="230" height="200" as="geometry" />
        </mxCell>
        <mxCell id="Z1lv3L_EZdjvVXRhWaT1-35" style="edgeStyle=orthogonalEdgeStyle;rounded=0;orthogonalLoop=1;jettySize=auto;html=1;exitX=1;exitY=0.5;exitDx=0;exitDy=0;entryX=0;entryY=0.5;entryDx=0;entryDy=0;entryPerimeter=0;strokeWidth=7;fillColor=#dae8fc;strokeColor=#6c8ebf;" parent="bkbN4g5Q3BRWfxt6GOeO-2" source="bkbN4g5Q3BRWfxt6GOeO-31" target="Z1lv3L_EZdjvVXRhWaT1-16" edge="1">
          <mxGeometry relative="1" as="geometry">
            <Array as="points">
              <mxPoint x="1280" y="1570" />
              <mxPoint x="1280" y="3460" />
            </Array>
          </mxGeometry>
        </mxCell>
        <mxCell id="Z1lv3L_EZdjvVXRhWaT1-36" style="edgeStyle=orthogonalEdgeStyle;rounded=0;orthogonalLoop=1;jettySize=auto;html=1;exitX=1;exitY=0.5;exitDx=0;exitDy=0;strokeWidth=7;fillColor=#f5f5f5;strokeColor=#666666;entryX=0;entryY=0.5;entryDx=0;entryDy=0;entryPerimeter=0;" parent="bkbN4g5Q3BRWfxt6GOeO-2" source="Z1lv3L_EZdjvVXRhWaT1-32" target="Z1lv3L_EZdjvVXRhWaT1-24" edge="1">
          <mxGeometry relative="1" as="geometry">
            <mxPoint x="1450" y="3205" as="targetPoint" />
            <Array as="points">
              <mxPoint x="1100" y="2110" />
              <mxPoint x="1250" y="2110" />
              <mxPoint x="1250" y="3760" />
            </Array>
          </mxGeometry>
        </mxCell>
        <mxCell id="Z1lv3L_EZdjvVXRhWaT1-37" value="BASES DE DATOS PRODUCCION" style="swimlane;whiteSpace=wrap;html=1;startSize=70;fontSize=26;" parent="bkbN4g5Q3BRWfxt6GOeO-2" vertex="1">
          <mxGeometry x="2580" y="3210" width="520" height="970" as="geometry" />
        </mxCell>
        <mxCell id="Z1lv3L_EZdjvVXRhWaT1-38" value="BD MySQL&lt;div&gt;&#39;Produccion_Alarms&#39;&lt;/div&gt;" style="shape=cylinder3;whiteSpace=wrap;html=1;boundedLbl=1;backgroundOutline=1;size=15;fillColor=#dae8fc;strokeColor=#6c8ebf;fontSize=23;" parent="Z1lv3L_EZdjvVXRhWaT1-37" vertex="1">
          <mxGeometry x="140" y="130" width="290" height="200" as="geometry" />
        </mxCell>
        <mxCell id="Z1lv3L_EZdjvVXRhWaT1-39" value="BD MySQL&lt;div&gt;&#39;Produccion_Ordenes&#39;&lt;/div&gt;" style="shape=cylinder3;whiteSpace=wrap;html=1;boundedLbl=1;backgroundOutline=1;size=15;fillColor=#eeeeee;strokeColor=#36393d;fontSize=23;" parent="Z1lv3L_EZdjvVXRhWaT1-37" vertex="1">
          <mxGeometry x="165" y="420" width="240" height="200" as="geometry" />
        </mxCell>
        <mxCell id="Z1lv3L_EZdjvVXRhWaT1-40" value="BD MySQL&lt;div&gt;&#39;Produccion_Velas&#39;&lt;/div&gt;" style="shape=cylinder3;whiteSpace=wrap;html=1;boundedLbl=1;backgroundOutline=1;size=15;fillColor=#fff2cc;strokeColor=#d6b656;fontSize=23;" parent="Z1lv3L_EZdjvVXRhWaT1-37" vertex="1">
          <mxGeometry x="165" y="710" width="235" height="200" as="geometry" />
        </mxCell>
        <mxCell id="Z1lv3L_EZdjvVXRhWaT1-41" style="edgeStyle=orthogonalEdgeStyle;rounded=0;orthogonalLoop=1;jettySize=auto;html=1;exitX=0.96;exitY=0.7;exitDx=0;exitDy=0;exitPerimeter=0;entryX=0;entryY=0.5;entryDx=0;entryDy=0;entryPerimeter=0;strokeWidth=7;fillColor=#dae8fc;strokeColor=#6c8ebf;" parent="bkbN4g5Q3BRWfxt6GOeO-2" source="Z1lv3L_EZdjvVXRhWaT1-15" target="Z1lv3L_EZdjvVXRhWaT1-38" edge="1">
          <mxGeometry relative="1" as="geometry" />
        </mxCell>
        <mxCell id="Z1lv3L_EZdjvVXRhWaT1-42" style="edgeStyle=orthogonalEdgeStyle;rounded=0;orthogonalLoop=1;jettySize=auto;html=1;entryX=0;entryY=0.5;entryDx=0;entryDy=0;entryPerimeter=0;strokeWidth=7;fillColor=#f5f5f5;strokeColor=#666666;exitX=0.31;exitY=0.8;exitDx=0;exitDy=0;exitPerimeter=0;" parent="bkbN4g5Q3BRWfxt6GOeO-2" source="Z1lv3L_EZdjvVXRhWaT1-15" target="Z1lv3L_EZdjvVXRhWaT1-39" edge="1">
          <mxGeometry relative="1" as="geometry">
            <mxPoint x="2330" y="2137" as="sourcePoint" />
            <Array as="points">
              <mxPoint x="2247" y="3740" />
              <mxPoint x="2270" y="3740" />
              <mxPoint x="2270" y="3730" />
            </Array>
          </mxGeometry>
        </mxCell>
        <mxCell id="Z1lv3L_EZdjvVXRhWaT1-43" style="edgeStyle=orthogonalEdgeStyle;rounded=0;orthogonalLoop=1;jettySize=auto;html=1;exitX=1;exitY=0.5;exitDx=0;exitDy=0;entryX=0;entryY=0.25;entryDx=0;entryDy=0;startArrow=classic;startFill=1;fillColor=#e1d5e7;strokeColor=#9673a6;strokeWidth=15;dashed=1;" parent="bkbN4g5Q3BRWfxt6GOeO-2" source="Z1lv3L_EZdjvVXRhWaT1-13" target="bkbN4g5Q3BRWfxt6GOeO-21" edge="1">
          <mxGeometry relative="1" as="geometry">
            <Array as="points">
              <mxPoint x="1400" y="2020" />
              <mxPoint x="1400" y="593" />
            </Array>
          </mxGeometry>
        </mxCell>
        <mxCell id="Z1lv3L_EZdjvVXRhWaT1-44" style="edgeStyle=orthogonalEdgeStyle;rounded=0;orthogonalLoop=1;jettySize=auto;html=1;exitX=0.88;exitY=0.25;exitDx=0;exitDy=0;exitPerimeter=0;entryX=0.75;entryY=1;entryDx=0;entryDy=0;startArrow=classic;startFill=1;fillColor=#e1d5e7;strokeColor=#9673a6;strokeWidth=15;dashed=1;" parent="bkbN4g5Q3BRWfxt6GOeO-2" source="Z1lv3L_EZdjvVXRhWaT1-15" target="bkbN4g5Q3BRWfxt6GOeO-20" edge="1">
          <mxGeometry relative="1" as="geometry">
            <Array as="points">
              <mxPoint x="2572" y="990" />
              <mxPoint x="2310" y="990" />
            </Array>
          </mxGeometry>
        </mxCell>
        <mxCell id="05PcgXrt5Fj0SvnptNWC-5" style="edgeStyle=orthogonalEdgeStyle;rounded=0;orthogonalLoop=1;jettySize=auto;html=1;exitX=0;exitY=0;exitDx=0;exitDy=57.5;exitPerimeter=0;entryX=1;entryY=0.5;entryDx=0;entryDy=0;strokeWidth=7;fillColor=#dae8fc;strokeColor=#6c8ebf;" parent="bkbN4g5Q3BRWfxt6GOeO-2" source="Z1lv3L_EZdjvVXRhWaT1-16" target="Z1lv3L_EZdjvVXRhWaT1-18" edge="1">
          <mxGeometry relative="1" as="geometry">
            <Array as="points">
              <mxPoint x="1140" y="3418" />
              <mxPoint x="1140" y="2450" />
            </Array>
          </mxGeometry>
        </mxCell>
        <mxCell id="05PcgXrt5Fj0SvnptNWC-6" style="edgeStyle=orthogonalEdgeStyle;rounded=0;orthogonalLoop=1;jettySize=auto;html=1;exitX=0;exitY=0;exitDx=0;exitDy=57.5;exitPerimeter=0;entryX=0.75;entryY=1;entryDx=0;entryDy=0;strokeWidth=7;fillColor=#f5f5f5;strokeColor=#666666;" parent="bkbN4g5Q3BRWfxt6GOeO-2" source="Z1lv3L_EZdjvVXRhWaT1-24" target="VxlaxJJWWcWtXpWew5wp-0" edge="1">
          <mxGeometry relative="1" as="geometry" />
        </mxCell>
        <mxCell id="05PcgXrt5Fj0SvnptNWC-69" style="edgeStyle=orthogonalEdgeStyle;rounded=0;orthogonalLoop=1;jettySize=auto;html=1;exitX=0;exitY=0;exitDx=0;exitDy=57.5;exitPerimeter=0;entryX=0.55;entryY=0.95;entryDx=0;entryDy=0;entryPerimeter=0;strokeWidth=7;fillColor=#f5f5f5;strokeColor=#666666;" parent="bkbN4g5Q3BRWfxt6GOeO-2" source="Z1lv3L_EZdjvVXRhWaT1-39" target="Z1lv3L_EZdjvVXRhWaT1-15" edge="1">
          <mxGeometry relative="1" as="geometry" />
        </mxCell>
        <mxCell id="05PcgXrt5Fj0SvnptNWC-70" style="edgeStyle=orthogonalEdgeStyle;rounded=0;orthogonalLoop=1;jettySize=auto;html=1;exitX=0.5;exitY=0;exitDx=0;exitDy=0;exitPerimeter=0;entryX=0.875;entryY=0.5;entryDx=0;entryDy=0;entryPerimeter=0;fillColor=#dae8fc;strokeColor=#6c8ebf;strokeWidth=7;" parent="bkbN4g5Q3BRWfxt6GOeO-2" source="Z1lv3L_EZdjvVXRhWaT1-38" target="Z1lv3L_EZdjvVXRhWaT1-15" edge="1">
          <mxGeometry relative="1" as="geometry">
            <Array as="points">
              <mxPoint x="2865" y="2808" />
              <mxPoint x="2860" y="2808" />
              <mxPoint x="2860" y="1928" />
            </Array>
          </mxGeometry>
        </mxCell>
      </root>
    </mxGraphModel>
  </diagram>
  <diagram id="wc8WplV_VS9Jqb7A4B6l" name="Prompt GPT">
    <mxGraphModel grid="1" page="1" gridSize="10" guides="1" tooltips="1" connect="1" arrows="1" fold="1" pageScale="1" pageWidth="850" pageHeight="1100" math="0" shadow="0">
      <root>
        <mxCell id="0" />
        <mxCell id="1" parent="0" />
      </root>
    </mxGraphModel>
  </diagram>
</mxfile>
